REM DIRINDEX 1\2,1\3,1\4,1\5
REM DIRNAME cjc044,folder01,folder02,folder03,folder04
TITLE ""
FILE "1800_180.mp3" MP3
  TRACK 01 AUDIO
    TITLE "2:cjc044_6225"
    INDEX 01 00:00:00
  TRACK 02 AUDIO
    TITLE "0:"
    INDEX 01 00:01:05
  TRACK 03 AUDIO
    TITLE "3:cjc044_6226"
    INDEX 01 00:01:52
  TRACK 04 AUDIO
    TITLE "0:"
    INDEX 01 00:02:61
  TRACK 05 AUDIO
    TITLE "4:cjc044_6227"
    INDEX 01 00:03:35
  TRACK 06 AUDIO
    TITLE "0:"
    INDEX 01 00:04:54
  TRACK 07 AUDIO
    TITLE "2:cjc044_6228"
    INDEX 01 00:06:31
  TRACK 08 AUDIO
    TITLE "0:"
    INDEX 01 00:07:43
  TRACK 09 AUDIO
    TITLE "3:cjc044_6229"
    INDEX 01 00:08:19
  TRACK 10 AUDIO
    TITLE "0:"
    INDEX 01 00:09:28
  TRACK 11 AUDIO
    TITLE "4:cjc044_6230"
    INDEX 01 00:10:04
  TRACK 12 AUDIO
    TITLE "0:"
    INDEX 01 00:11:21
  TRACK 13 AUDIO
    TITLE "2:cjc044_6231"
    INDEX 01 00:12:69
  TRACK 14 AUDIO
    TITLE "0:"
    INDEX 01 00:14:11
  TRACK 15 AUDIO
    TITLE "3:cjc044_6232"
    INDEX 01 00:14:60
  TRACK 16 AUDIO
    TITLE "0:"
    INDEX 01 00:15:66
  TRACK 17 AUDIO
    TITLE "4:cjc044_6233"
    INDEX 01 00:16:38
  TRACK 18 AUDIO
    TITLE "0:"
    INDEX 01 00:17:49
  TRACK 19 AUDIO
    TITLE "2:cjc044_6234"
    INDEX 01 00:19:30
  TRACK 20 AUDIO
    TITLE "0:"
    INDEX 01 00:20:65
  TRACK 21 AUDIO
    TITLE "3:cjc044_6235"
    INDEX 01 00:21:35
  TRACK 22 AUDIO
    TITLE "0:"
    INDEX 01 00:22:38
  TRACK 23 AUDIO
    TITLE "4:cjc044_6236"
    INDEX 01 00:23:10
  TRACK 24 AUDIO
    TITLE "0:"
    INDEX 01 00:24:47
  TRACK 25 AUDIO
    TITLE "2:cjc044_6237"
    INDEX 01 00:26:17
  TRACK 26 AUDIO
    TITLE "0:"
    INDEX 01 00:27:45
  TRACK 27 AUDIO
    TITLE "3:cjc044_6238"
    INDEX 01 00:28:15
  TRACK 28 AUDIO
    TITLE "0:"
    INDEX 01 00:30:20
  TRACK 29 AUDIO
    TITLE "4:cjc044_6239"
    INDEX 01 00:30:67
  TRACK 30 AUDIO
    TITLE "0:"
    INDEX 01 00:32:21
  TRACK 31 AUDIO
    TITLE "2:cjc044_6240"
    INDEX 01 00:33:68
  TRACK 32 AUDIO
    TITLE "0:"
    INDEX 01 00:35:17
  TRACK 33 AUDIO
    TITLE "3:cjc044_6241"
    INDEX 01 00:35:64
  TRACK 34 AUDIO
    TITLE "0:"
    INDEX 01 00:36:74
  TRACK 35 AUDIO
    TITLE "4:cjc044_6242"
    INDEX 01 00:37:46
  TRACK 36 AUDIO
    TITLE "0:"
    INDEX 01 00:38:69
  TRACK 37 AUDIO
    TITLE "2:cjc044_6243"
    INDEX 01 00:40:44
  TRACK 38 AUDIO
    TITLE "0:"
    INDEX 01 00:41:57
  TRACK 39 AUDIO
    TITLE "3:cjc044_6244"
    INDEX 01 00:42:27
  TRACK 40 AUDIO
    TITLE "0:"
    INDEX 01 00:43:25
  TRACK 41 AUDIO
    TITLE "4:cjc044_6245"
    INDEX 01 00:43:74
  TRACK 42 AUDIO
    TITLE "0:"
    INDEX 01 00:45:12
  TRACK 43 AUDIO
    TITLE "2:cjc044_6246"
    INDEX 01 00:46:60
  TRACK 44 AUDIO
    TITLE "0:"
    INDEX 01 00:47:64
  TRACK 45 AUDIO
    TITLE "3:cjc044_6247"
    INDEX 01 00:48:38
  TRACK 46 AUDIO
    TITLE "0:"
    INDEX 01 00:49:35
  TRACK 47 AUDIO
    TITLE "4:cjc044_6248"
    INDEX 01 00:50:07
  TRACK 48 AUDIO
    TITLE "0:"
    INDEX 01 00:51:09
  TRACK 49 AUDIO
    TITLE "2:cjc044_6249"
    INDEX 01 00:52:59
  TRACK 50 AUDIO
    TITLE "0:"
    INDEX 01 00:53:70
  TRACK 51 AUDIO
    TITLE "3:cjc044_6250"
    INDEX 01 00:54:44
  TRACK 52 AUDIO
    TITLE "0:"
    INDEX 01 00:55:69
  TRACK 53 AUDIO
    TITLE "4:cjc044_6251"
    INDEX 01 00:56:39
  TRACK 54 AUDIO
    TITLE "0:"
    INDEX 01 00:57:54
  TRACK 55 AUDIO
    TITLE "2:cjc044_6252"
    INDEX 01 00:59:28
  TRACK 56 AUDIO
    TITLE "0:"
    INDEX 01 01:00:53
  TRACK 57 AUDIO
    TITLE "3:cjc044_6253"
    INDEX 01 01:01:23
  TRACK 58 AUDIO
    TITLE "0:"
    INDEX 01 01:02:36
  TRACK 59 AUDIO
    TITLE "4:cjc044_6254"
    INDEX 01 01:03:08
  TRACK 60 AUDIO
    TITLE "0:"
    INDEX 01 01:04:31
  TRACK 61 AUDIO
    TITLE "2:cjc044_6255"
    INDEX 01 01:06:04
  TRACK 62 AUDIO
    TITLE "0:"
    INDEX 01 01:07:25
  TRACK 63 AUDIO
    TITLE "3:cjc044_6256"
    INDEX 01 01:07:74
  TRACK 64 AUDIO
    TITLE "0:"
    INDEX 01 01:09:18
  TRACK 65 AUDIO
    TITLE "4:cjc044_6257"
    INDEX 01 01:09:65
  TRACK 66 AUDIO
    TITLE "0:"
    INDEX 01 01:11:09
  TRACK 67 AUDIO
    TITLE "2:cjc044_6258"
    INDEX 01 01:12:64
  TRACK 68 AUDIO
    TITLE "0:"
    INDEX 01 01:14:10
  TRACK 69 AUDIO
    TITLE "3:cjc044_6259"
    INDEX 01 01:14:63
  TRACK 70 AUDIO
    TITLE "0:"
    INDEX 01 01:16:05
  TRACK 71 AUDIO
    TITLE "4:cjc044_6260"
    INDEX 01 01:16:54
  TRACK 72 AUDIO
    TITLE "0:"
    INDEX 01 01:18:02
  TRACK 73 AUDIO
    TITLE "2:cjc044_6261"
    INDEX 01 01:19:52
  TRACK 74 AUDIO
    TITLE "0:"
    INDEX 01 01:21:00
  TRACK 75 AUDIO
    TITLE "3:cjc044_6262"
    INDEX 01 01:21:51
  TRACK 76 AUDIO
    TITLE "0:"
    INDEX 01 01:23:46
  TRACK 77 AUDIO
    TITLE "4:cjc044_6263"
    INDEX 01 01:24:18
  TRACK 78 AUDIO
    TITLE "0:"
    INDEX 01 01:25:41
  TRACK 79 AUDIO
    TITLE "2:cjc044_6264"
    INDEX 01 01:27:14
  TRACK 80 AUDIO
    TITLE "0:"
    INDEX 01 01:28:29
  TRACK 81 AUDIO
    TITLE "3:cjc044_6265"
    INDEX 01 01:29:03
  TRACK 82 AUDIO
    TITLE "0:"
    INDEX 01 01:30:13
  TRACK 83 AUDIO
    TITLE "4:cjc044_6266"
    INDEX 01 01:30:60
  TRACK 84 AUDIO
    TITLE "0:"
    INDEX 01 01:31:73
  TRACK 85 AUDIO
    TITLE "2:cjc044_6267"
    INDEX 01 01:33:50
  TRACK 86 AUDIO
    TITLE "0:"
    INDEX 01 01:35:04
  TRACK 87 AUDIO
    TITLE "3:cjc044_6268"
    INDEX 01 01:35:51
  TRACK 88 AUDIO
    TITLE "0:"
    INDEX 01 01:36:64
  TRACK 89 AUDIO
    TITLE "4:cjc044_6269"
    INDEX 01 01:37:34
  TRACK 90 AUDIO
    TITLE "0:"
    INDEX 01 01:38:63
  TRACK 91 AUDIO
    TITLE "2:cjc044_6270"
    INDEX 01 01:40:35
  TRACK 92 AUDIO
    TITLE "0:"
    INDEX 01 01:41:57
  TRACK 93 AUDIO
    TITLE "3:cjc044_6271"
    INDEX 01 01:42:30
  TRACK 94 AUDIO
    TITLE "0:"
    INDEX 01 01:43:56
  TRACK 95 AUDIO
    TITLE "4:cjc044_6272"
    INDEX 01 01:44:26
  TRACK 96 AUDIO
    TITLE "0:"
    INDEX 01 01:45:47
  TRACK 97 AUDIO
    TITLE "2:cjc044_6273"
    INDEX 01 01:47:21
  TRACK 98 AUDIO
    TITLE "0:"
    INDEX 01 01:48:32
  TRACK 99 AUDIO
    TITLE "3:cjc044_6274"
    INDEX 01 01:49:00
  TRACK 100 AUDIO
    TITLE "0:"
    INDEX 01 01:49:65
  TRACK 101 AUDIO
    TITLE "4:cjc044_6275"
    INDEX 01 01:50:39
  TRACK 102 AUDIO
    TITLE "0:"
    INDEX 01 01:51:50
  TRACK 103 AUDIO
    TITLE "2:cjc044_6276"
    INDEX 01 01:53:21
  TRACK 104 AUDIO
    TITLE "0:"
    INDEX 01 01:54:58
  TRACK 105 AUDIO
    TITLE "3:cjc044_6277"
    INDEX 01 01:55:30
  TRACK 106 AUDIO
    TITLE "0:"
    INDEX 01 01:56:55
  TRACK 107 AUDIO
    TITLE "4:cjc044_6278"
    INDEX 01 01:57:29
  TRACK 108 AUDIO
    TITLE "0:"
    INDEX 01 01:58:64
